<svg width="25" height="24" viewBox="0 0 25 24" fill="none" xmlns="http://www.w3.org/2000/svg">
<path fill-rule="evenodd" clip-rule="evenodd" d="M5.72969 7.8905C6.08623 4.68158 8.79859 2.25391 12.0273 2.25391C15.2559 2.25391 17.9683 4.68158 18.3248 7.8905L18.5766 10.1567L18.5828 10.2117C18.6996 11.23 19.0311 12.212 19.5553 13.0928L19.5837 13.1403L20.1618 14.1037L20.1812 14.1361C20.4269 14.5455 20.6399 14.9005 20.7802 15.1984C20.9223 15.5001 21.0539 15.8694 20.9897 16.2767C20.9238 16.6945 20.7087 17.0743 20.3843 17.3459C20.0682 17.6105 19.6838 17.6876 19.3519 17.721C19.0243 17.7539 18.6102 17.7539 18.1328 17.7539L18.095 17.7539H5.95949L5.92174 17.7539C5.44427 17.7539 5.03018 17.7539 4.7026 17.721C4.37076 17.6876 3.98633 17.6105 3.6702 17.3459C3.34582 17.0743 3.13076 16.6945 3.06483 16.2767C3.00058 15.8694 3.13221 15.5001 3.27432 15.1984C3.41459 14.9005 3.62766 14.5455 3.87333 14.136L3.89276 14.1037L4.47079 13.1403L4.4992 13.0928C5.02341 12.212 5.35488 11.23 5.47173 10.2117L5.47789 10.1567L5.72969 7.8905ZM12.0273 3.75391C9.56291 3.75391 7.49265 5.60687 7.22051 8.05615L6.96871 10.3224L6.96195 10.3827C6.82092 11.6117 6.42087 12.7969 5.7882 13.86L5.75703 13.912L5.179 14.8754C4.9083 15.3266 4.73551 15.6163 4.63135 15.8375C4.56737 15.9733 4.55249 16.0376 4.54907 16.0566C4.55979 16.1063 4.58541 16.1516 4.6225 16.1863C4.64055 16.1932 4.70334 16.2135 4.85275 16.2285C5.09599 16.253 5.43335 16.2539 5.95949 16.2539H18.095C18.6212 16.2539 18.9585 16.253 19.2018 16.2285C19.3512 16.2135 19.414 16.1932 19.432 16.1863C19.4691 16.1516 19.4947 16.1063 19.5054 16.0566C19.502 16.0376 19.4871 15.9733 19.4232 15.8375C19.319 15.6163 19.1462 15.3266 18.8755 14.8754L18.2975 13.912L18.2663 13.86C17.6336 12.7969 17.2336 11.6117 17.0926 10.3827L17.0858 10.3224L16.834 8.05615C16.5619 5.60688 14.4916 3.75391 12.0273 3.75391Z" fill="#5C687A"/>
<path d="M9.12957 17.6686C9.30049 18.6254 9.67713 19.471 10.2011 20.074C10.725 20.677 11.3669 21.0039 12.0273 21.0039C12.6877 21.0039 13.3297 20.677 13.8536 20.074C14.3776 19.471 14.7542 18.6254 14.9251 17.6686" stroke="#5C687A" stroke-width="1.5" stroke-linecap="round"/>
</svg>
