<svg width="25" height="25" viewBox="0 0 25 25" fill="none" xmlns="http://www.w3.org/2000/svg">
<path d="M5.73445 19.7284L6.26478 20.2588L5.73445 19.7284ZM17.5581 17.1311L17.8451 17.824L17.8451 17.824L17.5581 17.1311ZM19.7229 14.9663L20.4158 15.2533V15.2533L19.7229 14.9663ZM19.7229 7.90481L20.4158 7.6178V7.6178L19.7229 7.90481ZM17.5581 5.74003L17.8451 5.04712L17.8451 5.04712L17.5581 5.74003ZM7.8809 17.582L8.41123 18.1123L7.8809 17.582ZM8.03523 17.4546L7.74821 16.7617L8.03523 17.4546ZM4.77734 13.4355C4.77734 11.5287 4.77894 10.1741 4.9171 9.1464C5.05237 8.14031 5.30604 7.56066 5.72925 7.13745L4.66859 6.07679C3.92022 6.82515 3.58811 7.7741 3.43048 8.94652C3.27575 10.0974 3.27734 11.5711 3.27734 13.4355H4.77734ZM3.27734 13.4355V17.4355H4.77734V13.4355H3.27734ZM3.27734 17.4355V19.0213H4.77734V17.4355H3.27734ZM3.27734 19.0213C3.27734 20.5804 5.16234 21.3612 6.26478 20.2588L5.20412 19.1981C5.04663 19.3556 4.77734 19.2441 4.77734 19.0213H3.27734ZM6.26478 20.2588L8.41123 18.1123L7.35057 17.0517L5.20412 19.1981L6.26478 20.2588ZM14.0273 16.6855H8.23445V18.1855H14.0273V16.6855ZM17.2711 16.4382C17.0101 16.5462 16.6846 16.6138 16.1649 16.6492C15.6385 16.6851 14.9695 16.6855 14.0273 16.6855V18.1855C14.949 18.1855 15.6777 18.186 16.267 18.1457C16.863 18.1051 17.3709 18.0204 17.8451 17.824L17.2711 16.4382ZM19.03 14.6793C18.7001 15.4756 18.0674 16.1083 17.2711 16.4382L17.8451 17.824C19.009 17.3419 19.9337 16.4172 20.4158 15.2533L19.03 14.6793ZM19.2773 11.4355C19.2773 12.3777 19.2769 13.0467 19.241 13.5731C19.2056 14.0928 19.138 14.4183 19.03 14.6793L20.4158 15.2533C20.6122 14.7791 20.6969 14.2712 20.7375 13.6752C20.7778 13.0859 20.7773 12.3572 20.7773 11.4355H19.2773ZM19.03 8.19183C19.138 8.45275 19.2056 8.77834 19.241 9.29798C19.2769 9.82435 19.2773 10.4934 19.2773 11.4355H20.7773C20.7773 10.5139 20.7778 9.78515 20.7375 9.19587C20.6969 8.59986 20.6122 8.09196 20.4158 7.6178L19.03 8.19183ZM17.2711 6.43294C18.0674 6.76279 18.7001 7.39548 19.03 8.19183L20.4158 7.6178C19.9337 6.45392 19.009 5.52922 17.8451 5.04712L17.2711 6.43294ZM14.0273 6.18555C14.9695 6.18555 15.6385 6.18595 16.1649 6.22187C16.6846 6.25732 17.0101 6.32486 17.2711 6.43294L17.8451 5.04712C17.3709 4.85072 16.863 4.76601 16.267 4.72535C15.6777 4.68514 14.949 4.68555 14.0273 4.68555V6.18555ZM12.0273 6.18555H14.0273V4.68555H12.0273V6.18555ZM5.72925 7.13745C6.15246 6.71424 6.7321 6.46057 7.73819 6.32531C8.76586 6.18714 10.1205 6.18555 12.0273 6.18555V4.68555C10.1629 4.68555 8.68917 4.68395 7.53832 4.83868C6.3659 4.99631 5.41695 5.32843 4.66859 6.07679L5.72925 7.13745ZM8.41123 18.1123C8.43043 18.0931 8.44195 18.0816 8.45137 18.0725C8.46065 18.0635 8.46111 18.0634 8.45653 18.0673C8.45142 18.0717 8.43625 18.0844 8.41293 18.0997C8.38816 18.1159 8.35771 18.1328 8.32224 18.1475L7.74821 16.7617C7.53239 16.8511 7.37955 17.0227 7.35057 17.0517L8.41123 18.1123ZM8.23445 16.6855C8.19346 16.6855 7.96403 16.6723 7.74821 16.7617L8.32224 18.1475C8.28676 18.1622 8.2533 18.1718 8.22431 18.1778C8.19701 18.1835 8.17732 18.1853 8.1706 18.1858C8.16458 18.1862 8.16496 18.186 8.17789 18.1858C8.19102 18.1856 8.20729 18.1855 8.23445 18.1855V16.6855Z" fill="#3B8AFF"/>
<path d="M8.52734 9.93555L15.5273 9.93555" stroke="#3B8AFF" stroke-linecap="round" stroke-linejoin="round"/>
<path d="M8.52734 12.9355L13.5273 12.9355" stroke="#3B8AFF" stroke-linecap="round" stroke-linejoin="round"/>
</svg>
